<svg width="583" height="258" viewBox="0 0 583 258" fill="none" xmlns="http://www.w3.org/2000/svg">
<path d="M123.351 201.732C123.153 199.727 122.299 198.169 120.791 197.059C119.283 195.949 117.236 195.393 114.651 195.393C112.895 195.393 111.411 195.642 110.202 196.139C108.992 196.62 108.064 197.291 107.418 198.153C106.788 199.014 106.473 199.992 106.473 201.086C106.44 201.997 106.63 202.793 107.045 203.472C107.476 204.152 108.064 204.74 108.81 205.237C109.555 205.718 110.417 206.14 111.395 206.505C112.373 206.853 113.417 207.151 114.527 207.4L119.101 208.494C121.321 208.991 123.36 209.654 125.216 210.482C127.072 211.311 128.679 212.33 130.038 213.54C131.397 214.75 132.449 216.175 133.195 217.815C133.958 219.456 134.347 221.337 134.364 223.458C134.347 226.574 133.552 229.275 131.977 231.562C130.419 233.832 128.166 235.597 125.216 236.857C122.283 238.099 118.744 238.721 114.601 238.721C110.492 238.721 106.912 238.091 103.863 236.832C100.83 235.572 98.4604 233.708 96.7535 231.239C95.0631 228.753 94.1765 225.679 94.0937 222.016H104.509C104.625 223.723 105.114 225.148 105.976 226.292C106.854 227.419 108.022 228.272 109.481 228.852C110.956 229.416 112.621 229.697 114.477 229.697C116.3 229.697 117.883 229.432 119.225 228.902C120.584 228.372 121.636 227.634 122.382 226.69C123.128 225.745 123.501 224.66 123.501 223.433C123.501 222.29 123.161 221.329 122.481 220.55C121.819 219.771 120.841 219.108 119.548 218.561C118.272 218.014 116.706 217.517 114.85 217.07L109.307 215.678C105.015 214.634 101.626 213.001 99.1398 210.781C96.654 208.56 95.4194 205.569 95.436 201.807C95.4194 198.724 96.2397 196.031 97.8969 193.728C99.5707 191.424 101.866 189.626 104.783 188.334C107.699 187.041 111.014 186.395 114.726 186.395C118.504 186.395 121.802 187.041 124.619 188.334C127.453 189.626 129.657 191.424 131.231 193.728C132.806 196.031 133.618 198.7 133.668 201.732H123.351ZM152.292 238.721C149.856 238.721 147.685 238.298 145.78 237.453C143.874 236.591 142.366 235.324 141.255 233.65C140.162 231.96 139.615 229.855 139.615 227.336C139.615 225.215 140.004 223.433 140.783 221.991C141.562 220.55 142.623 219.39 143.965 218.511C145.307 217.633 146.832 216.97 148.539 216.523C150.262 216.075 152.069 215.76 153.958 215.578C156.178 215.346 157.968 215.131 159.327 214.932C160.686 214.716 161.672 214.402 162.285 213.987C162.898 213.573 163.205 212.96 163.205 212.148V211.999C163.205 210.424 162.708 209.206 161.714 208.344C160.736 207.483 159.344 207.052 157.537 207.052C155.632 207.052 154.115 207.474 152.988 208.32C151.861 209.148 151.116 210.192 150.751 211.452L140.957 210.656C141.454 208.336 142.432 206.331 143.89 204.641C145.349 202.934 147.23 201.625 149.533 200.713C151.853 199.785 154.538 199.321 157.587 199.321C159.708 199.321 161.738 199.57 163.677 200.067C165.633 200.564 167.365 201.335 168.873 202.379C170.397 203.423 171.599 204.765 172.477 206.406C173.355 208.03 173.794 209.977 173.794 212.247V238H163.752V232.705H163.454C162.84 233.898 162.02 234.951 160.993 235.862C159.965 236.757 158.731 237.461 157.289 237.975C155.847 238.472 154.182 238.721 152.292 238.721ZM155.325 231.413C156.883 231.413 158.258 231.106 159.451 230.493C160.645 229.863 161.581 229.018 162.26 227.957C162.94 226.897 163.28 225.695 163.28 224.353V220.301C162.948 220.517 162.492 220.715 161.912 220.898C161.349 221.063 160.711 221.221 159.998 221.37C159.286 221.503 158.573 221.627 157.861 221.743C157.148 221.842 156.502 221.933 155.922 222.016C154.679 222.199 153.593 222.489 152.665 222.886C151.737 223.284 151.016 223.823 150.503 224.502C149.989 225.165 149.732 225.994 149.732 226.988C149.732 228.43 150.254 229.532 151.298 230.294C152.359 231.04 153.701 231.413 155.325 231.413ZM202.543 199.818V207.773H178.977V199.818H202.543ZM184.372 238V197.059C184.372 194.291 184.91 191.996 185.987 190.173C187.081 188.35 188.573 186.983 190.462 186.072C192.351 185.16 194.497 184.705 196.9 184.705C198.524 184.705 200.007 184.829 201.35 185.077C202.708 185.326 203.719 185.55 204.382 185.749L202.493 193.703C202.079 193.571 201.565 193.446 200.952 193.33C200.355 193.214 199.742 193.156 199.112 193.156C197.555 193.156 196.469 193.521 195.856 194.25C195.243 194.963 194.936 195.965 194.936 197.258V238H184.372ZM225.045 238.746C221.118 238.746 217.737 237.95 214.903 236.359C212.086 234.752 209.915 232.482 208.391 229.548C206.866 226.598 206.104 223.11 206.104 219.083C206.104 215.156 206.866 211.709 208.391 208.742C209.915 205.776 212.061 203.464 214.829 201.807C217.613 200.15 220.878 199.321 224.623 199.321C227.142 199.321 229.487 199.727 231.658 200.539C233.845 201.335 235.751 202.536 237.375 204.143C239.016 205.751 240.292 207.773 241.203 210.209C242.114 212.628 242.57 215.462 242.57 218.71V221.619H210.329V215.056H232.602C232.602 213.531 232.271 212.181 231.608 211.004C230.945 209.828 230.025 208.908 228.849 208.245C227.689 207.566 226.338 207.226 224.797 207.226C223.189 207.226 221.764 207.599 220.521 208.344C219.295 209.074 218.334 210.06 217.638 211.303C216.942 212.529 216.585 213.896 216.569 215.404V221.643C216.569 223.533 216.917 225.165 217.613 226.54C218.325 227.916 219.328 228.977 220.621 229.722C221.913 230.468 223.446 230.841 225.219 230.841C226.396 230.841 227.473 230.675 228.451 230.344C229.429 230.012 230.266 229.515 230.962 228.852C231.658 228.189 232.188 227.377 232.552 226.416L242.347 227.062C241.849 229.416 240.83 231.471 239.289 233.227C237.764 234.967 235.792 236.326 233.373 237.304C230.97 238.265 228.194 238.746 225.045 238.746ZM277.297 201.732C277.098 199.727 276.244 198.169 274.736 197.059C273.228 195.949 271.182 195.393 268.597 195.393C266.84 195.393 265.357 195.642 264.147 196.139C262.937 196.62 262.009 197.291 261.363 198.153C260.733 199.014 260.418 199.992 260.418 201.086C260.385 201.997 260.576 202.793 260.99 203.472C261.421 204.152 262.009 204.74 262.755 205.237C263.501 205.718 264.362 206.14 265.34 206.505C266.318 206.853 267.362 207.151 268.472 207.4L273.046 208.494C275.267 208.991 277.305 209.654 279.161 210.482C281.017 211.311 282.625 212.33 283.984 213.54C285.342 214.75 286.395 216.175 287.141 217.815C287.903 219.456 288.292 221.337 288.309 223.458C288.292 226.574 287.497 229.275 285.922 231.562C284.365 233.832 282.111 235.597 279.161 236.857C276.228 238.099 272.69 238.721 268.547 238.721C264.437 238.721 260.857 238.091 257.808 236.832C254.775 235.572 252.406 233.708 250.699 231.239C249.008 228.753 248.122 225.679 248.039 222.016H258.454C258.57 223.723 259.059 225.148 259.921 226.292C260.799 227.419 261.968 228.272 263.426 228.852C264.901 229.416 266.566 229.697 268.422 229.697C270.245 229.697 271.828 229.432 273.17 228.902C274.529 228.372 275.582 227.634 276.327 226.69C277.073 225.745 277.446 224.66 277.446 223.433C277.446 222.29 277.106 221.329 276.427 220.55C275.764 219.771 274.786 219.108 273.494 218.561C272.217 218.014 270.651 217.517 268.795 217.07L263.252 215.678C258.96 214.634 255.571 213.001 253.085 210.781C250.599 208.56 249.365 205.569 249.381 201.807C249.365 198.724 250.185 196.031 251.842 193.728C253.516 191.424 255.811 189.626 258.728 188.334C261.645 187.041 264.959 186.395 268.671 186.395C272.449 186.395 275.747 187.041 278.565 188.334C281.398 189.626 283.602 191.424 285.177 193.728C286.751 196.031 287.563 198.7 287.613 201.732H277.297ZM315.659 199.818V207.773H292.665V199.818H315.659ZM297.885 190.67H308.475V226.267C308.475 227.245 308.624 228.007 308.922 228.554C309.221 229.084 309.635 229.457 310.165 229.673C310.712 229.888 311.342 229.996 312.054 229.996C312.552 229.996 313.049 229.954 313.546 229.871C314.043 229.772 314.424 229.697 314.689 229.648L316.355 237.528C315.825 237.693 315.079 237.884 314.118 238.099C313.156 238.331 311.988 238.472 310.613 238.522C308.061 238.621 305.823 238.282 303.901 237.503C301.995 236.724 300.512 235.514 299.451 233.874C298.391 232.233 297.869 230.161 297.885 227.659V190.67ZM333.445 238.721C331.009 238.721 328.838 238.298 326.932 237.453C325.026 236.591 323.518 235.324 322.408 233.65C321.314 231.96 320.767 229.855 320.767 227.336C320.767 225.215 321.157 223.433 321.935 221.991C322.714 220.55 323.775 219.39 325.117 218.511C326.46 217.633 327.984 216.97 329.691 216.523C331.415 216.075 333.221 215.76 335.11 215.578C337.331 215.346 339.121 215.131 340.479 214.932C341.838 214.716 342.824 214.402 343.438 213.987C344.051 213.573 344.357 212.96 344.357 212.148V211.999C344.357 210.424 343.86 209.206 342.866 208.344C341.888 207.483 340.496 207.052 338.69 207.052C336.784 207.052 335.268 207.474 334.141 208.32C333.014 209.148 332.268 210.192 331.903 211.452L322.109 210.656C322.607 208.336 323.584 206.331 325.043 204.641C326.501 202.934 328.382 201.625 330.685 200.713C333.006 199.785 335.69 199.321 338.739 199.321C340.861 199.321 342.891 199.57 344.83 200.067C346.785 200.564 348.517 201.335 350.025 202.379C351.55 203.423 352.751 204.765 353.629 206.406C354.508 208.03 354.947 209.977 354.947 212.247V238H344.904V232.705H344.606C343.993 233.898 343.172 234.951 342.145 235.862C341.118 236.757 339.883 237.461 338.441 237.975C336.999 238.472 335.334 238.721 333.445 238.721ZM336.477 231.413C338.035 231.413 339.411 231.106 340.604 230.493C341.797 229.863 342.733 229.018 343.413 227.957C344.092 226.897 344.432 225.695 344.432 224.353V220.301C344.1 220.517 343.645 220.715 343.065 220.898C342.501 221.063 341.863 221.221 341.151 221.37C340.438 221.503 339.725 221.627 339.013 221.743C338.3 221.842 337.654 221.933 337.074 222.016C335.831 222.199 334.746 222.489 333.818 222.886C332.89 223.284 332.169 223.823 331.655 224.502C331.141 225.165 330.884 225.994 330.884 226.988C330.884 228.43 331.406 229.532 332.45 230.294C333.511 231.04 334.853 231.413 336.477 231.413ZM383.471 199.818V207.773H360.478V199.818H383.471ZM365.698 190.67H376.287V226.267C376.287 227.245 376.437 228.007 376.735 228.554C377.033 229.084 377.447 229.457 377.978 229.673C378.525 229.888 379.154 229.996 379.867 229.996C380.364 229.996 380.861 229.954 381.358 229.871C381.856 229.772 382.237 229.697 382.502 229.648L384.167 237.528C383.637 237.693 382.891 237.884 381.93 238.099C380.969 238.331 379.801 238.472 378.425 238.522C375.873 238.621 373.636 238.282 371.714 237.503C369.808 236.724 368.325 235.514 367.264 233.874C366.203 232.233 365.681 230.161 365.698 227.659V190.67ZM390.369 238V199.818H400.959V238H390.369ZM395.689 194.896C394.115 194.896 392.764 194.374 391.637 193.33C390.527 192.27 389.972 191.002 389.972 189.527C389.972 188.069 390.527 186.817 391.637 185.773C392.764 184.713 394.115 184.183 395.689 184.183C397.263 184.183 398.606 184.713 399.716 185.773C400.843 186.817 401.406 188.069 401.406 189.527C401.406 191.002 400.843 192.27 399.716 193.33C398.606 194.374 397.263 194.896 395.689 194.896ZM426.693 238.746C422.832 238.746 419.493 237.925 416.675 236.285C413.875 234.628 411.712 232.324 410.187 229.374C408.663 226.408 407.9 222.969 407.9 219.058C407.9 215.114 408.663 211.667 410.187 208.717C411.712 205.751 413.875 203.447 416.675 201.807C419.493 200.15 422.832 199.321 426.693 199.321C430.554 199.321 433.885 200.15 436.686 201.807C439.503 203.447 441.674 205.751 443.199 208.717C444.723 211.667 445.486 215.114 445.486 219.058C445.486 222.969 444.723 226.408 443.199 229.374C441.674 232.324 439.503 234.628 436.686 236.285C433.885 237.925 430.554 238.746 426.693 238.746ZM426.743 230.543C428.499 230.543 429.966 230.045 431.143 229.051C432.319 228.04 433.206 226.665 433.802 224.925C434.416 223.185 434.722 221.204 434.722 218.984C434.722 216.763 434.416 214.783 433.802 213.043C433.206 211.303 432.319 209.927 431.143 208.916C429.966 207.905 428.499 207.4 426.743 207.4C424.97 207.4 423.478 207.905 422.268 208.916C421.075 209.927 420.172 211.303 419.559 213.043C418.962 214.783 418.664 216.763 418.664 218.984C418.664 221.204 418.962 223.185 419.559 224.925C420.172 226.665 421.075 228.04 422.268 229.051C423.478 230.045 424.97 230.543 426.743 230.543ZM462.961 215.926V238H452.371V199.818H462.464V206.555H462.911C463.756 204.334 465.173 202.577 467.162 201.285C469.15 199.976 471.562 199.321 474.396 199.321C477.047 199.321 479.359 199.901 481.331 201.061C483.303 202.221 484.836 203.878 485.93 206.033C487.023 208.17 487.57 210.723 487.57 213.689V238H476.981V215.578C476.997 213.241 476.401 211.419 475.191 210.109C473.981 208.784 472.316 208.121 470.195 208.121C468.769 208.121 467.51 208.427 466.416 209.04C465.339 209.654 464.494 210.549 463.881 211.725C463.284 212.885 462.977 214.286 462.961 215.926Z" fill="#2ACB82"/>
<g filter="url(#filter0_d_5514_1281)">
<path d="M332.5 0H251.5C229.132 0 211 18.1325 211 40.5001V121.5C211 143.868 229.132 162 251.5 162H332.5C354.868 162 373 143.868 373 121.5V40.5001C373 18.1325 354.868 0 332.5 0Z" fill="#20283D"/>
</g>
<g filter="url(#filter1_d_5514_1281)">
<path d="M332.5 0H251.5C229.132 0 211 18.1325 211 40.5001V121.5C211 143.868 229.132 162 251.5 162H332.5C354.868 162 373 143.868 373 121.5V40.5001C373 18.1325 354.868 0 332.5 0Z" fill="#20283D"/>
</g>
<path d="M343.267 37.6516H243.425V25.1582H343.267V37.6516ZM316.372 87.6253H305.826V98.1822C301.895 104.117 299.586 111.175 299.586 118.859C299.586 120.983 299.835 123.044 300.147 125.106H243.425V87.6253H237.185V75.1319L243.425 43.8983H343.267L349.507 75.1319V83.5649C345.576 82.1907 341.395 81.3786 337.027 81.3786C329.351 81.3786 322.3 83.6899 316.372 87.6253ZM293.346 87.6253H255.905V112.612H293.346V87.6253ZM351.629 99.1192L329.226 121.545L319.305 111.613L312.066 118.859L329.226 137.599L358.867 107.927L351.629 99.1192Z" fill="white"/>
<g clip-path="url(#clip0_5514_1281)">
<path d="M351.333 98.2573L346.948 102.832L329.285 120.495L324.139 115.539L319.564 110.965L310.605 119.923L315.18 124.498L324.711 134.029L329.095 138.603L333.669 134.029L355.907 111.791L360.482 107.216L351.333 98.2573Z" fill="#2ACB82"/>
</g>
<defs>
<filter id="filter0_d_5514_1281" x="207" y="0" width="170" height="170" filterUnits="userSpaceOnUse" color-interpolation-filters="sRGB">
<feFlood flood-opacity="0" result="BackgroundImageFix"/>
<feColorMatrix in="SourceAlpha" type="matrix" values="0 0 0 0 0 0 0 0 0 0 0 0 0 0 0 0 0 0 127 0" result="hardAlpha"/>
<feOffset dy="4"/>
<feGaussianBlur stdDeviation="2"/>
<feComposite in2="hardAlpha" operator="out"/>
<feColorMatrix type="matrix" values="0 0 0 0 0 0 0 0 0 0 0 0 0 0 0 0 0 0 0.25 0"/>
<feBlend mode="normal" in2="BackgroundImageFix" result="effect1_dropShadow_5514_1281"/>
<feBlend mode="normal" in="SourceGraphic" in2="effect1_dropShadow_5514_1281" result="shape"/>
</filter>
<filter id="filter1_d_5514_1281" x="207" y="0" width="170" height="170" filterUnits="userSpaceOnUse" color-interpolation-filters="sRGB">
<feFlood flood-opacity="0" result="BackgroundImageFix"/>
<feColorMatrix in="SourceAlpha" type="matrix" values="0 0 0 0 0 0 0 0 0 0 0 0 0 0 0 0 0 0 127 0" result="hardAlpha"/>
<feOffset dy="4"/>
<feGaussianBlur stdDeviation="2"/>
<feComposite in2="hardAlpha" operator="out"/>
<feColorMatrix type="matrix" values="0 0 0 0 0 0 0 0 0 0 0 0 0 0 0 0 0 0 0.25 0"/>
<feBlend mode="normal" in2="BackgroundImageFix" result="effect1_dropShadow_5514_1281"/>
<feBlend mode="normal" in="SourceGraphic" in2="effect1_dropShadow_5514_1281" result="shape"/>
</filter>
<clipPath id="clip0_5514_1281">
<rect width="50.8294" height="50.8294" fill="white" transform="translate(310.605 91.9037)"/>
</clipPath>
</defs>
</svg>
