<svg width="45" height="45" viewBox="0 0 45 45" fill="none" xmlns="http://www.w3.org/2000/svg">
<path d="M0 5C0 2.23858 2.23858 0 5 0H40C42.7614 0 45 2.23858 45 5V40C45 42.7614 42.7614 45 40 45H5C2.23858 45 0 42.7614 0 40V5Z" fill="#27C595" fill-opacity="0.1"/>
<path fill-rule="evenodd" clip-rule="evenodd" d="M23.0201 15.0649C23.0201 14.5688 22.6703 14.1665 22.2388 14.1665C21.8073 14.1665 21.4576 14.5688 21.4576 15.0649V21.4582H15.0645C14.5683 21.4582 14.166 21.8079 14.166 22.2394C14.166 22.6709 14.5683 23.0207 15.0645 23.0207H21.4576V29.9347C21.4576 30.4309 21.8073 30.8332 22.2388 30.8332C22.6703 30.8332 23.0201 30.4309 23.0201 29.9347V23.0207H29.9342C30.4304 23.0207 30.8327 22.6709 30.8327 22.2394C30.8327 21.8079 30.4304 21.4582 29.9342 21.4582H23.0201V15.0649Z" fill="url(#paint0_linear_5216_4677)"/>
<path d="M21.4576 21.4582V21.9582C21.7337 21.9582 21.9576 21.7343 21.9576 21.4582H21.4576ZM21.4576 23.0207H21.9576C21.9576 22.7445 21.7337 22.5207 21.4576 22.5207V23.0207ZM23.0201 23.0207V22.5207C22.7439 22.5207 22.5201 22.7445 22.5201 23.0207H23.0201ZM23.0201 21.4582H22.5201C22.5201 21.7343 22.7439 21.9582 23.0201 21.9582V21.4582ZM22.2388 14.6665C22.3308 14.6665 22.5201 14.777 22.5201 15.0649H23.5201C23.5201 14.3605 23.0098 13.6665 22.2388 13.6665V14.6665ZM21.9576 15.0649C21.9576 14.777 22.1468 14.6665 22.2388 14.6665V13.6665C21.4679 13.6665 20.9576 14.3605 20.9576 15.0649H21.9576ZM21.9576 21.4582V15.0649H20.9576V21.4582H21.9576ZM15.0645 21.9582H21.4576V20.9582H15.0645V21.9582ZM14.666 22.2394C14.666 22.1474 14.7765 21.9582 15.0645 21.9582V20.9582C14.36 20.9582 13.666 21.4685 13.666 22.2394H14.666ZM15.0645 22.5207C14.7765 22.5207 14.666 22.3314 14.666 22.2394H13.666C13.666 23.0104 14.36 23.5207 15.0645 23.5207V22.5207ZM21.4576 22.5207H15.0645V23.5207H21.4576V22.5207ZM21.9576 29.9347V23.0207H20.9576V29.9347H21.9576ZM22.2388 30.3332C22.1468 30.3332 21.9576 30.2227 21.9576 29.9347H20.9576C20.9576 30.6392 21.4679 31.3332 22.2388 31.3332V30.3332ZM22.5201 29.9347C22.5201 30.2227 22.3308 30.3332 22.2388 30.3332V31.3332C23.0098 31.3332 23.5201 30.6392 23.5201 29.9347H22.5201ZM22.5201 23.0207V29.9347H23.5201V23.0207H22.5201ZM29.9342 22.5207H23.0201V23.5207H29.9342V22.5207ZM30.3327 22.2394C30.3327 22.3314 30.2222 22.5207 29.9342 22.5207V23.5207C30.6387 23.5207 31.3327 23.0104 31.3327 22.2394H30.3327ZM29.9342 21.9582C30.2222 21.9582 30.3327 22.1474 30.3327 22.2394H31.3327C31.3327 21.4685 30.6387 20.9582 29.9342 20.9582V21.9582ZM23.0201 21.9582H29.9342V20.9582H23.0201V21.9582ZM22.5201 15.0649V21.4582H23.5201V15.0649H22.5201Z" fill="url(#paint1_linear_5216_4677)"/>
<defs>
<linearGradient id="paint0_linear_5216_4677" x1="6.35352" y1="9.91303" x2="37.2382" y2="38.2709" gradientUnits="userSpaceOnUse">
<stop offset="0.0885417" stop-color="#61FF47"/>
<stop offset="0.635417" stop-color="#89B8FF"/>
<stop offset="0.899308" stop-color="#FF70F1"/>
</linearGradient>
<linearGradient id="paint1_linear_5216_4677" x1="6.35352" y1="9.91303" x2="37.2382" y2="38.2709" gradientUnits="userSpaceOnUse">
<stop offset="0.0885417" stop-color="#61FF47"/>
<stop offset="0.635417" stop-color="#89B8FF"/>
<stop offset="0.899308" stop-color="#FF70F1"/>
</linearGradient>
</defs>
</svg>
