<svg width="956" height="324" viewBox="0 0 956 324" fill="none" xmlns="http://www.w3.org/2000/svg">
<line x1="420.286" y1="225.75" x2="526.751" y2="119.286" stroke="#33CE84" stroke-width="10" stroke-linecap="round"/>
<line x1="418.547" y1="119.061" x2="525.011" y2="225.525" stroke="#33CE84" stroke-width="10" stroke-linecap="round"/>
<g filter="url(#filter0_d_5304_4773)">
<path d="M872.364 0H714.6C671.035 0 635.719 35.3165 635.719 78.8817V236.645C635.719 280.21 671.035 315.526 714.6 315.526H872.364C915.929 315.526 951.245 280.21 951.245 236.645V78.8817C951.245 35.3165 915.929 0 872.364 0Z" fill="url(#paint0_linear_5304_4773)"/>
<g clip-path="url(#clip0_5304_4773)">
<path d="M879.459 86.3272L797.689 52.1877C796.675 51.7643 795.588 51.5464 794.49 51.5464C793.392 51.5464 792.305 51.7643 791.291 52.1877L709.522 86.3272C707.999 86.9627 706.698 88.0374 705.783 89.4158C704.867 90.7941 704.378 92.4143 704.377 94.0718V135.565C704.37 163.49 712.638 190.783 728.127 213.961C743.616 237.139 765.623 255.151 791.338 265.697C793.361 266.527 795.627 266.527 797.649 265.697C823.362 255.15 845.367 237.139 860.855 213.962C876.342 190.785 884.611 163.493 884.604 135.57V94.0767C884.604 92.4183 884.116 90.797 883.2 89.4177C882.284 88.0384 880.982 86.9629 879.459 86.3272V86.3272ZM867.917 135.57C867.92 159.575 860.98 183.062 847.942 203.171C834.904 223.279 816.331 239.141 794.486 248.823C772.641 239.141 754.068 223.279 741.03 203.171C727.993 183.062 721.053 159.575 721.056 135.57V99.6735L794.486 69.0195L867.917 99.6735V135.57ZM785.268 163.849L821.137 127.789C821.912 127.01 822.832 126.392 823.844 125.97C824.856 125.549 825.941 125.332 827.037 125.332C828.133 125.332 829.218 125.549 830.23 125.97C831.242 126.392 832.162 127.01 832.937 127.789C833.712 128.568 834.326 129.493 834.746 130.511C835.165 131.529 835.381 132.62 835.381 133.721C835.381 134.823 835.165 135.914 834.746 136.932C834.326 137.95 833.712 138.875 832.937 139.654L791.168 181.64C789.603 183.214 787.481 184.097 785.268 184.097C783.055 184.097 780.933 183.214 779.368 181.64L756.05 158.199C754.485 156.625 753.606 154.49 753.607 152.265C753.607 150.039 754.487 147.905 756.052 146.332C757.618 144.758 759.741 143.875 761.954 143.875C764.167 143.876 766.29 144.76 767.855 146.334L785.268 163.849Z" fill="#28293D"/>
</g>
</g>
<g filter="url(#filter1_d_5304_4773)">
<path d="M872.364 0H714.6C671.035 0 635.719 35.3165 635.719 78.8817V236.645C635.719 280.21 671.035 315.526 714.6 315.526H872.364C915.929 315.526 951.245 280.21 951.245 236.645V78.8817C951.245 35.3165 915.929 0 872.364 0Z" fill="url(#paint1_linear_5304_4773)"/>
<g clip-path="url(#clip1_5304_4773)">
<path d="M879.459 86.3272L797.689 52.1877C796.675 51.7643 795.588 51.5464 794.49 51.5464C793.392 51.5464 792.305 51.7643 791.291 52.1877L709.522 86.3272C707.999 86.9627 706.698 88.0374 705.783 89.4158C704.867 90.7941 704.378 92.4143 704.377 94.0718V135.565C704.37 163.49 712.638 190.783 728.127 213.961C743.616 237.139 765.623 255.151 791.338 265.697C793.361 266.527 795.627 266.527 797.649 265.697C823.362 255.15 845.367 237.139 860.855 213.962C876.342 190.785 884.611 163.493 884.604 135.57V94.0767C884.604 92.4183 884.116 90.797 883.2 89.4177C882.284 88.0384 880.982 86.9629 879.459 86.3272V86.3272ZM867.917 135.57C867.92 159.575 860.98 183.062 847.942 203.171C834.904 223.279 816.331 239.141 794.486 248.823C772.641 239.141 754.068 223.279 741.03 203.171C727.993 183.062 721.053 159.575 721.056 135.57V99.6735L794.486 69.0195L867.917 99.6735V135.57ZM785.268 163.849L821.137 127.789C821.912 127.01 822.832 126.392 823.844 125.97C824.856 125.549 825.941 125.332 827.037 125.332C828.133 125.332 829.218 125.549 830.23 125.97C831.242 126.392 832.162 127.01 832.937 127.789C833.712 128.568 834.326 129.493 834.746 130.511C835.165 131.529 835.381 132.62 835.381 133.721C835.381 134.823 835.165 135.914 834.746 136.932C834.326 137.95 833.712 138.875 832.937 139.654L791.168 181.64C789.603 183.214 787.481 184.097 785.268 184.097C783.055 184.097 780.933 183.214 779.368 181.64L756.05 158.199C754.485 156.625 753.606 154.49 753.607 152.265C753.607 150.039 754.487 147.905 756.052 146.332C757.618 144.758 759.741 143.875 761.954 143.875C764.167 143.876 766.29 144.76 767.855 146.334L785.268 163.849Z" fill="#28293D"/>
</g>
</g>
<g filter="url(#filter2_d_5304_4773)">
<path d="M240.645 0H82.8816C39.3164 0 4 35.3165 4 78.8817V236.645C4 280.21 39.3164 315.526 82.8816 315.526H240.645C284.21 315.526 319.526 280.21 319.526 236.645V78.8817C319.526 35.3165 284.21 0 240.645 0Z" fill="url(#paint2_linear_5304_4773)"/>
</g>
<path d="M203.792 167.958V176.417C203.792 199.846 198.175 222.472 187.594 242.781L185.674 246.333L170.906 238.095C180.787 220.383 186.245 200.547 186.816 180.274L186.875 176.417V167.958H203.792ZM153.042 142.583H169.958V176.417L169.916 179.622C169.277 202.779 161.308 225.135 147.155 243.474L145.201 245.927L132.099 235.236C145.006 219.467 152.35 199.88 152.991 179.512L153.042 176.417V142.583ZM161.5 108.75C172.716 108.75 183.473 113.206 191.405 121.137C199.336 129.068 203.792 139.825 203.792 151.042H186.875C186.875 144.312 184.201 137.857 179.443 133.099C174.684 128.34 168.23 125.667 161.5 125.667C154.77 125.667 148.316 128.34 143.557 133.099C138.798 137.857 136.125 144.312 136.125 151.042V176.417C136.125 195.321 129.189 213.16 116.924 226.972L115.131 228.917L102.884 217.245C112.776 206.89 118.56 193.288 119.157 178.979L119.208 176.417V151.042C119.208 139.825 123.664 129.068 131.595 121.137C139.526 113.206 150.283 108.75 161.5 108.75ZM161.5 74.9166C181.689 74.9166 201.052 82.9369 215.328 97.2131C229.605 111.489 237.625 130.852 237.625 151.042V176.417C237.625 190.779 235.925 204.921 232.584 218.624L231.4 223.183L215.075 218.734C218.391 206.579 220.268 194.018 220.641 181.221L220.708 176.417V151.042C220.708 140.053 217.65 129.281 211.877 119.932C206.103 110.582 197.841 103.024 188.016 98.1029C178.192 93.1817 167.191 91.0917 156.246 92.0668C145.301 93.0419 134.843 97.0436 126.043 103.624L113.989 91.5626C127.468 80.7637 144.229 74.891 161.5 74.9166ZM102.021 103.531L114.082 115.584C106.828 125.254 102.723 136.921 102.325 149.003L102.292 151.042L102.325 167.958C102.325 177.432 100.092 186.592 95.8886 194.83L94.5606 197.283L79.877 188.893C83.0827 183.268 84.952 176.992 85.3326 170.428L85.4087 167.958V151.042C85.3585 133.772 91.2208 117.006 102.021 103.531Z" fill="black"/>
<defs>
<filter id="filter0_d_5304_4773" x="631.719" y="0" width="323.525" height="323.526" filterUnits="userSpaceOnUse" color-interpolation-filters="sRGB">
<feFlood flood-opacity="0" result="BackgroundImageFix"/>
<feColorMatrix in="SourceAlpha" type="matrix" values="0 0 0 0 0 0 0 0 0 0 0 0 0 0 0 0 0 0 127 0" result="hardAlpha"/>
<feOffset dy="4"/>
<feGaussianBlur stdDeviation="2"/>
<feComposite in2="hardAlpha" operator="out"/>
<feColorMatrix type="matrix" values="0 0 0 0 0 0 0 0 0 0 0 0 0 0 0 0 0 0 0.25 0"/>
<feBlend mode="normal" in2="BackgroundImageFix" result="effect1_dropShadow_5304_4773"/>
<feBlend mode="normal" in="SourceGraphic" in2="effect1_dropShadow_5304_4773" result="shape"/>
</filter>
<filter id="filter1_d_5304_4773" x="631.719" y="0" width="323.525" height="323.526" filterUnits="userSpaceOnUse" color-interpolation-filters="sRGB">
<feFlood flood-opacity="0" result="BackgroundImageFix"/>
<feColorMatrix in="SourceAlpha" type="matrix" values="0 0 0 0 0 0 0 0 0 0 0 0 0 0 0 0 0 0 127 0" result="hardAlpha"/>
<feOffset dy="4"/>
<feGaussianBlur stdDeviation="2"/>
<feComposite in2="hardAlpha" operator="out"/>
<feColorMatrix type="matrix" values="0 0 0 0 0 0 0 0 0 0 0 0 0 0 0 0 0 0 0.25 0"/>
<feBlend mode="normal" in2="BackgroundImageFix" result="effect1_dropShadow_5304_4773"/>
<feBlend mode="normal" in="SourceGraphic" in2="effect1_dropShadow_5304_4773" result="shape"/>
</filter>
<filter id="filter2_d_5304_4773" x="0" y="0" width="323.526" height="323.526" filterUnits="userSpaceOnUse" color-interpolation-filters="sRGB">
<feFlood flood-opacity="0" result="BackgroundImageFix"/>
<feColorMatrix in="SourceAlpha" type="matrix" values="0 0 0 0 0 0 0 0 0 0 0 0 0 0 0 0 0 0 127 0" result="hardAlpha"/>
<feOffset dy="4"/>
<feGaussianBlur stdDeviation="2"/>
<feComposite in2="hardAlpha" operator="out"/>
<feColorMatrix type="matrix" values="0 0 0 0 0 0 0 0 0 0 0 0 0 0 0 0 0 0 0.25 0"/>
<feBlend mode="normal" in2="BackgroundImageFix" result="effect1_dropShadow_5304_4773"/>
<feBlend mode="normal" in="SourceGraphic" in2="effect1_dropShadow_5304_4773" result="shape"/>
</filter>
<linearGradient id="paint0_linear_5304_4773" x1="487.816" y1="-80.5249" x2="1072.51" y2="456.333" gradientUnits="userSpaceOnUse">
<stop offset="0.0885417" stop-color="#61FF47"/>
<stop offset="0.635417" stop-color="#89B8FF"/>
<stop offset="0.899308" stop-color="#FF70F1"/>
</linearGradient>
<linearGradient id="paint1_linear_5304_4773" x1="487.816" y1="-80.5249" x2="1072.51" y2="456.333" gradientUnits="userSpaceOnUse">
<stop offset="0.0885417" stop-color="#61FF47"/>
<stop offset="0.635417" stop-color="#89B8FF"/>
<stop offset="0.899308" stop-color="#FF70F1"/>
</linearGradient>
<linearGradient id="paint2_linear_5304_4773" x1="-143.903" y1="-80.5249" x2="440.793" y2="456.333" gradientUnits="userSpaceOnUse">
<stop offset="0.0885417" stop-color="#61FF47"/>
<stop offset="0.635417" stop-color="#89B8FF"/>
<stop offset="0.899308" stop-color="#FF70F1"/>
</linearGradient>
<clipPath id="clip0_5304_4773">
<rect width="180.227" height="214.777" fill="white" transform="translate(704.377 51.5449)"/>
</clipPath>
<clipPath id="clip1_5304_4773">
<rect width="180.227" height="214.777" fill="white" transform="translate(704.377 51.5449)"/>
</clipPath>
</defs>
</svg>
