<svg width="25" height="30" viewBox="0 0 25 30" fill="none" xmlns="http://www.w3.org/2000/svg">
<g clip-path="url(#clip0_4826_3548)">
<path d="M23.2683 11.0079C22.868 10.6093 22.3877 10.2944 21.857 10.0824C21.3263 9.87041 20.7565 9.7659 20.1826 9.77528H9.18591V5.83602C9.17831 5.43902 9.25244 5.04454 9.40397 4.67563C9.5555 4.30671 9.78139 3.97076 10.0684 3.6874C10.3555 3.40405 10.6979 3.17897 11.0758 3.02532C11.4536 2.87167 11.8592 2.79253 12.269 2.79253C12.6787 2.79253 13.0844 2.87167 13.4622 3.02532C13.8401 3.17897 14.1825 3.40405 14.4696 3.6874C14.7566 3.97076 14.9825 4.30671 15.134 4.67563C15.2855 5.04454 15.3597 5.43902 15.3521 5.83602V7.94791H18.2915V5.83602C18.3021 5.06311 18.1541 4.29587 17.8562 3.57883C17.5583 2.86179 17.1164 2.20924 16.5561 1.65905C15.9958 1.10886 15.3283 0.672002 14.5924 0.373831C13.8564 0.075661 13.0667 -0.0778809 12.269 -0.0778809C11.4713 -0.0778809 10.6816 0.075661 9.94562 0.373831C9.20968 0.672002 8.54218 1.10886 7.98189 1.65905C7.42159 2.20924 6.97966 2.86179 6.68175 3.57883C6.38384 4.29587 6.23588 5.06311 6.24646 5.83602V12.6606H20.1826C20.3673 12.6582 20.5506 12.6913 20.722 12.7579C20.8934 12.8245 21.0495 12.9235 21.1812 13.0489C21.3155 13.1697 21.422 13.3165 21.4938 13.4799C21.5656 13.6433 21.601 13.8195 21.5977 13.997V25.7819C21.5958 26.145 21.4461 26.4927 21.1811 26.7495C20.9161 27.0062 20.5573 27.1513 20.1826 27.1532H4.35538C3.98083 27.1508 3.62234 27.0055 3.35749 26.7489C3.09264 26.4923 2.94274 26.1449 2.94024 25.7819V13.997C2.93637 13.8188 2.97149 13.6418 3.04329 13.4777C3.11509 13.3136 3.22195 13.166 3.35683 13.0448C3.48853 12.9194 3.64459 12.8204 3.81599 12.7538C3.98738 12.6871 4.17071 12.6541 4.35538 12.6565V9.77733C3.78147 9.76795 3.21165 9.87247 2.68098 10.0844C2.15031 10.2964 1.67001 10.6114 1.26964 11.01C0.858369 11.3977 0.533347 11.863 0.314586 12.377C0.0958255 12.8911 -0.0120453 13.4431 -0.00238577 13.9991V25.7819C-0.0126108 26.338 0.0950017 26.8901 0.313796 27.4043C0.53259 27.9184 0.857913 28.3836 1.26964 28.771C1.66963 29.1701 2.14985 29.4854 2.68061 29.6974C3.21137 29.9094 3.78138 30.0136 4.35538 30.0037H20.1826C20.7554 30.006 21.3229 29.8983 21.8525 29.687C22.3821 29.4756 22.8633 29.1647 23.2682 28.7722C23.6732 28.3797 23.9939 27.9134 24.2119 27.4002C24.4298 26.8869 24.5408 26.3369 24.5382 25.7819V13.997C24.5482 13.4412 24.4406 12.8893 24.2223 12.3752C24.0039 11.8612 23.6792 11.3958 23.2683 11.0079Z" fill="url(#paint0_linear_4826_3548)"/>
<path d="M14.1623 24.3638L13.1446 22.0269C13.4276 21.8788 13.6645 21.66 13.8308 21.3932C13.9971 21.1265 14.0866 20.8214 14.0902 20.5098C14.0787 20.049 13.8818 19.6108 13.5414 19.2888C13.201 18.9669 12.7442 18.7866 12.2685 18.7866C11.7929 18.7866 11.3361 18.9669 10.9957 19.2888C10.6553 19.6108 10.4583 20.049 10.4469 20.5098C10.4504 20.8214 10.54 21.1265 10.7062 21.3932C10.8725 21.66 11.1094 21.8788 11.3924 22.0269L10.3759 24.3638H14.1623Z" fill="url(#paint1_linear_4826_3548)"/>
</g>
<defs>
<linearGradient id="paint0_linear_4826_3548" x1="-8.42746" y1="6.12657" x2="29.7048" y2="5.89971" gradientUnits="userSpaceOnUse">
<stop offset="0.0885417" stop-color="#44BCF0"/>
<stop offset="0.567708" stop-color="#818CF8"/>
<stop offset="1" stop-color="#A099FF"/>
</linearGradient>
<linearGradient id="paint1_linear_4826_3548" x1="9.07611" y1="19.9369" x2="14.9593" y2="19.9078" gradientUnits="userSpaceOnUse">
<stop offset="0.0885417" stop-color="#44BCF0"/>
<stop offset="0.567708" stop-color="#818CF8"/>
<stop offset="1" stop-color="#A099FF"/>
</linearGradient>
<clipPath id="clip0_4826_3548">
<rect width="24.5385" height="30" fill="white"/>
</clipPath>
</defs>
</svg>
