<svg width="200" height="200" viewBox="0 0 200 200" fill="none" xmlns="http://www.w3.org/2000/svg">
<g filter="url(#filter0_d_5055_4634)">
<path d="M148 0H52C25.4903 0 4 21.4904 4 48.0001V144C4 170.51 25.4903 192 52 192H148C174.51 192 196 170.51 196 144V48.0001C196 21.4904 174.51 0 148 0Z" fill="url(#paint0_linear_5055_4634)"/>
<g clip-path="url(#clip0_5055_4634)">
<path d="M152.318 52.5311L102.56 31.757C101.943 31.4993 101.281 31.3667 100.613 31.3667C99.945 31.3667 99.2834 31.4993 98.6664 31.757L48.9096 52.5311C47.9831 52.9178 47.1913 53.5718 46.6342 54.4105C46.077 55.2492 45.7793 56.2351 45.7788 57.2437V82.4929C45.7745 99.4851 50.806 116.093 60.2311 130.197C69.6562 144.301 83.0473 155.261 98.6952 161.679C99.926 162.184 101.305 162.184 102.536 161.679C118.182 155.261 131.572 144.301 140.997 130.198C150.421 116.094 155.452 99.4872 155.448 82.4959V57.2467C155.448 56.2376 155.151 55.251 154.594 54.4117C154.037 53.5723 153.245 52.9179 152.318 52.5311ZM145.294 82.4959C145.296 97.1028 141.073 111.395 133.139 123.631C125.206 135.867 113.904 145.519 100.611 151.411C87.3181 145.519 76.0164 135.867 68.0827 123.631C60.1491 111.395 55.926 97.1028 55.9281 82.4959V60.6524L100.611 41.9992L145.294 60.6524V82.4959ZM95.0016 99.7039L116.828 77.7609C117.3 77.2869 117.859 76.9108 118.475 76.6543C119.091 76.3977 119.752 76.2656 120.418 76.2656C121.085 76.2656 121.745 76.3977 122.361 76.6543C122.977 76.9108 123.537 77.2869 124.009 77.7609C124.48 78.235 124.854 78.7978 125.109 79.4171C125.364 80.0365 125.496 80.7004 125.496 81.3708C125.496 82.0412 125.364 82.7051 125.109 83.3245C124.854 83.9438 124.48 84.5066 124.009 84.9807L98.5918 110.53C97.6396 111.487 96.3482 112.025 95.0016 112.025C93.6551 112.025 92.3637 111.487 91.4115 110.53L77.2223 96.2656C76.2701 95.3078 75.7353 94.0089 75.7356 92.6546C75.7359 91.3004 76.2712 90.0017 77.2237 89.0443C78.1763 88.0869 79.4681 87.5492 80.8149 87.5495C82.1618 87.5498 83.4533 88.088 84.4055 89.0458L95.0016 99.7039Z" fill="#28293D"/>
</g>
</g>
<defs>
<filter id="filter0_d_5055_4634" x="0" y="0" width="200" height="200" filterUnits="userSpaceOnUse" color-interpolation-filters="sRGB">
<feFlood flood-opacity="0" result="BackgroundImageFix"/>
<feColorMatrix in="SourceAlpha" type="matrix" values="0 0 0 0 0 0 0 0 0 0 0 0 0 0 0 0 0 0 127 0" result="hardAlpha"/>
<feOffset dy="4"/>
<feGaussianBlur stdDeviation="2"/>
<feComposite in2="hardAlpha" operator="out"/>
<feColorMatrix type="matrix" values="0 0 0 0 0 0 0 0 0 0 0 0 0 0 0 0 0 0 0.25 0"/>
<feBlend mode="normal" in2="BackgroundImageFix" result="effect1_dropShadow_5055_4634"/>
<feBlend mode="normal" in="SourceGraphic" in2="effect1_dropShadow_5055_4634" result="shape"/>
</filter>
<linearGradient id="paint0_linear_5055_4634" x1="-86" y1="-49" x2="269.792" y2="277.682" gradientUnits="userSpaceOnUse">
<stop offset="0.0885417" stop-color="#61FF47"/>
<stop offset="0.635417" stop-color="#89B8FF"/>
<stop offset="0.899308" stop-color="#FF70F1"/>
</linearGradient>
<clipPath id="clip0_5055_4634">
<rect width="109.67" height="130.693" fill="white" transform="translate(45.7788 31.3657)"/>
</clipPath>
</defs>
</svg>
