<svg width="773" height="170" viewBox="0 0 773 170" fill="none" xmlns="http://www.w3.org/2000/svg">
<path d="M235.774 65.1889C235.49 62.3243 234.271 60.099 232.116 58.5128C229.962 56.9266 227.038 56.1335 223.345 56.1335C220.836 56.1335 218.717 56.4886 216.989 57.1989C215.26 57.8854 213.935 58.8442 213.011 60.0753C212.112 61.3063 211.662 62.7031 211.662 64.2656C211.615 65.5677 211.887 66.7041 212.479 67.6747C213.094 68.6454 213.935 69.4858 215 70.196C216.065 70.8826 217.296 71.4863 218.693 72.0071C220.09 72.5043 221.581 72.9304 223.168 73.2855L229.702 74.848C232.874 75.5582 235.786 76.5052 238.438 77.6889C241.089 78.8726 243.385 80.3286 245.327 82.0568C247.268 83.785 248.771 85.821 249.837 88.1648C250.926 90.5085 251.482 93.1955 251.506 96.2259C251.482 100.677 250.346 104.536 248.097 107.803C245.871 111.046 242.652 113.567 238.438 115.366C234.247 117.142 229.193 118.03 223.274 118.03C217.403 118.03 212.289 117.13 207.933 115.331C203.601 113.532 200.215 110.868 197.777 107.341C195.362 103.79 194.096 99.3982 193.977 94.1662H208.857C209.022 96.6046 209.721 98.6406 210.952 100.274C212.206 101.884 213.875 103.103 215.959 103.932C218.066 104.737 220.445 105.139 223.097 105.139C225.701 105.139 227.962 104.76 229.879 104.003C231.821 103.245 233.324 102.192 234.389 100.842C235.455 99.4929 235.987 97.9422 235.987 96.1903C235.987 94.5568 235.502 93.1837 234.531 92.071C233.584 90.9583 232.188 90.0114 230.341 89.2301C228.518 88.4489 226.281 87.7386 223.629 87.0994L215.71 85.1108C209.579 83.6193 204.737 81.2874 201.186 78.1151C197.635 74.9427 195.871 70.6695 195.895 65.2955C195.871 60.892 197.043 57.045 199.411 53.7543C201.802 50.4635 205.08 47.8949 209.247 46.0483C213.414 44.2017 218.149 43.2784 223.452 43.2784C228.849 43.2784 233.561 44.2017 237.585 46.0483C241.634 47.8949 244.782 50.4635 247.031 53.7543C249.28 57.045 250.44 60.8565 250.511 65.1889H235.774ZM277.118 118.03C273.638 118.03 270.537 117.426 267.814 116.219C265.092 114.988 262.937 113.177 261.351 110.786C259.789 108.371 259.007 105.364 259.007 101.766C259.007 98.7353 259.564 96.1903 260.676 94.1307C261.789 92.071 263.304 90.4138 265.222 89.1591C267.14 87.9044 269.318 86.9574 271.756 86.3182C274.218 85.679 276.799 85.2292 279.498 84.9688C282.67 84.6373 285.227 84.3295 287.168 84.0455C289.109 83.7377 290.518 83.2879 291.394 82.696C292.27 82.1042 292.708 81.2282 292.708 80.0682V79.8551C292.708 77.6061 291.998 75.866 290.577 74.6349C289.18 73.4039 287.192 72.7884 284.611 72.7884C281.889 72.7884 279.722 73.392 278.113 74.5994C276.503 75.7831 275.437 77.2746 274.917 79.0739L260.925 77.9375C261.635 74.6231 263.032 71.7585 265.115 69.3438C267.199 66.9053 269.886 65.035 273.176 63.733C276.491 62.4072 280.326 61.7443 284.682 61.7443C287.712 61.7443 290.613 62.0994 293.382 62.8097C296.176 63.5199 298.65 64.6207 300.804 66.1122C302.982 67.6037 304.699 69.5213 305.953 71.8651C307.208 74.1851 307.836 76.9669 307.836 80.2102V117H293.489V109.436H293.063C292.187 111.141 291.015 112.644 289.547 113.946C288.079 115.224 286.316 116.231 284.256 116.964C282.196 117.675 279.817 118.03 277.118 118.03ZM281.451 107.589C283.676 107.589 285.641 107.152 287.346 106.276C289.05 105.376 290.388 104.169 291.358 102.653C292.329 101.138 292.814 99.4219 292.814 97.5043V91.7159C292.341 92.0237 291.69 92.3078 290.861 92.5682C290.056 92.8049 289.145 93.0298 288.127 93.2429C287.109 93.4323 286.091 93.6098 285.073 93.7756C284.055 93.9176 283.132 94.0478 282.303 94.1662C280.527 94.4266 278.977 94.8409 277.651 95.4091C276.325 95.9773 275.295 96.7467 274.561 97.7173C273.828 98.6643 273.461 99.848 273.461 101.268C273.461 103.328 274.206 104.902 275.698 105.991C277.213 107.057 279.131 107.589 281.451 107.589ZM348.904 62.4545V73.8182H315.24V62.4545H348.904ZM322.946 117V58.5128C322.946 54.5592 323.715 51.2803 325.254 48.6761C326.816 46.072 328.947 44.1188 331.646 42.8168C334.345 41.5147 337.411 40.8636 340.843 40.8636C343.163 40.8636 345.282 41.0412 347.2 41.3963C349.141 41.7514 350.585 42.071 351.532 42.3551L348.833 53.7188C348.242 53.5294 347.508 53.3518 346.632 53.1861C345.779 53.0204 344.904 52.9375 344.004 52.9375C341.779 52.9375 340.228 53.4583 339.352 54.5C338.476 55.518 338.038 56.9503 338.038 58.7969V117H322.946ZM381.051 118.065C375.44 118.065 370.611 116.929 366.562 114.656C362.538 112.36 359.437 109.116 357.259 104.926C355.08 100.712 353.991 95.7287 353.991 89.9759C353.991 84.3651 355.08 79.4408 357.259 75.2031C359.437 70.9654 362.502 67.6629 366.456 65.2955C370.433 62.928 375.097 61.7443 380.447 61.7443C384.046 61.7443 387.396 62.3243 390.497 63.4844C393.622 64.6207 396.345 66.3371 398.665 68.6335C401.009 70.9299 402.831 73.8182 404.134 77.2983C405.436 80.7547 406.087 84.803 406.087 89.4432V93.598H360.028V84.223H391.847C391.847 82.045 391.373 80.1155 390.426 78.4347C389.479 76.7538 388.165 75.4399 386.484 74.4929C384.827 73.5223 382.898 73.0369 380.696 73.0369C378.4 73.0369 376.364 73.5696 374.588 74.6349C372.836 75.6766 371.463 77.0852 370.469 78.8608C369.474 80.6127 368.965 82.5658 368.942 84.7202V93.6335C368.942 96.3324 369.439 98.6643 370.433 100.629C371.451 102.594 372.884 104.109 374.73 105.175C376.577 106.24 378.767 106.773 381.3 106.773C382.981 106.773 384.519 106.536 385.916 106.062C387.313 105.589 388.509 104.879 389.503 103.932C390.497 102.985 391.255 101.825 391.776 100.452L405.767 101.375C405.057 104.737 403.601 107.672 401.399 110.182C399.221 112.668 396.404 114.609 392.947 116.006C389.515 117.379 385.549 118.065 381.051 118.065ZM455.696 65.1889C455.412 62.3243 454.193 60.099 452.038 58.5128C449.884 56.9266 446.96 56.1335 443.267 56.1335C440.758 56.1335 438.639 56.4886 436.911 57.1989C435.182 57.8854 433.857 58.8442 432.933 60.0753C432.034 61.3063 431.584 62.7031 431.584 64.2656C431.536 65.5677 431.809 66.7041 432.401 67.6747C433.016 68.6454 433.857 69.4858 434.922 70.196C435.987 70.8826 437.218 71.4863 438.615 72.0071C440.012 72.5043 441.503 72.9304 443.089 73.2855L449.624 74.848C452.796 75.5582 455.708 76.5052 458.359 77.6889C461.011 78.8726 463.307 80.3286 465.249 82.0568C467.19 83.785 468.693 85.821 469.759 88.1648C470.848 90.5085 471.404 93.1955 471.428 96.2259C471.404 100.677 470.268 104.536 468.018 107.803C465.793 111.046 462.573 113.567 458.359 115.366C454.169 117.142 449.115 118.03 443.196 118.03C437.325 118.03 432.211 117.13 427.855 115.331C423.523 113.532 420.137 110.868 417.699 107.341C415.284 103.79 414.018 99.3982 413.899 94.1662H428.778C428.944 96.6046 429.643 98.6406 430.874 100.274C432.128 101.884 433.797 103.103 435.881 103.932C437.988 104.737 440.367 105.139 443.018 105.139C445.623 105.139 447.884 104.76 449.801 104.003C451.742 103.245 453.246 102.192 454.311 100.842C455.376 99.4929 455.909 97.9422 455.909 96.1903C455.909 94.5568 455.424 93.1837 454.453 92.071C453.506 90.9583 452.109 90.0114 450.263 89.2301C448.44 88.4489 446.203 87.7386 443.551 87.0994L435.632 85.1108C429.5 83.6193 424.659 81.2874 421.108 78.1151C417.557 74.9427 415.793 70.6695 415.817 65.2955C415.793 60.892 416.965 57.045 419.332 53.7543C421.723 50.4635 425.002 47.8949 429.169 46.0483C433.336 44.2017 438.071 43.2784 443.374 43.2784C448.771 43.2784 453.482 44.2017 457.507 46.0483C461.555 47.8949 464.704 50.4635 466.953 53.7543C469.202 57.045 470.362 60.8565 470.433 65.1889H455.696ZM510.499 62.4545V73.8182H477.651V62.4545H510.499ZM485.108 49.3864H500.236V100.239C500.236 101.635 500.449 102.724 500.875 103.506C501.301 104.263 501.893 104.796 502.651 105.104C503.432 105.411 504.332 105.565 505.35 105.565C506.06 105.565 506.77 105.506 507.48 105.388C508.191 105.246 508.735 105.139 509.114 105.068L511.493 116.325C510.736 116.562 509.67 116.834 508.297 117.142C506.924 117.473 505.255 117.675 503.29 117.746C499.644 117.888 496.448 117.402 493.702 116.29C490.98 115.177 488.861 113.449 487.346 111.105C485.83 108.761 485.085 105.802 485.108 102.227V49.3864ZM535.907 118.03C532.427 118.03 529.326 117.426 526.603 116.219C523.881 114.988 521.726 113.177 520.14 110.786C518.578 108.371 517.797 105.364 517.797 101.766C517.797 98.7353 518.353 96.1903 519.466 94.1307C520.578 92.071 522.093 90.4138 524.011 89.1591C525.929 87.9044 528.107 86.9574 530.545 86.3182C533.007 85.679 535.588 85.2292 538.287 84.9688C541.459 84.6373 544.016 84.3295 545.957 84.0455C547.898 83.7377 549.307 83.2879 550.183 82.696C551.059 82.1042 551.497 81.2282 551.497 80.0682V79.8551C551.497 77.6061 550.787 75.866 549.366 74.6349C547.969 73.4039 545.981 72.7884 543.4 72.7884C540.678 72.7884 538.511 73.392 536.902 74.5994C535.292 75.7831 534.226 77.2746 533.706 79.0739L519.714 77.9375C520.424 74.6231 521.821 71.7585 523.904 69.3438C525.988 66.9053 528.675 65.035 531.966 63.733C535.28 62.4072 539.115 61.7443 543.471 61.7443C546.502 61.7443 549.402 62.0994 552.172 62.8097C554.965 63.5199 557.439 64.6207 559.593 66.1122C561.771 67.6037 563.488 69.5213 564.743 71.8651C565.997 74.1851 566.625 76.9669 566.625 80.2102V117H552.278V109.436H551.852C550.976 111.141 549.804 112.644 548.336 113.946C546.868 115.224 545.105 116.231 543.045 116.964C540.985 117.675 538.606 118.03 535.907 118.03ZM540.24 107.589C542.465 107.589 544.43 107.152 546.135 106.276C547.839 105.376 549.177 104.169 550.147 102.653C551.118 101.138 551.603 99.4219 551.603 97.5043V91.7159C551.13 92.0237 550.479 92.3078 549.65 92.5682C548.845 92.8049 547.934 93.0298 546.916 93.2429C545.898 93.4323 544.88 93.6098 543.862 93.7756C542.844 93.9176 541.921 94.0478 541.092 94.1662C539.316 94.4266 537.766 94.8409 536.44 95.4091C535.114 95.9773 534.084 96.7467 533.35 97.7173C532.617 98.6643 532.25 99.848 532.25 101.268C532.25 103.328 532.995 104.902 534.487 105.991C536.002 107.057 537.92 107.589 540.24 107.589ZM607.374 62.4545V73.8182H574.526V62.4545H607.374ZM581.983 49.3864H597.111V100.239C597.111 101.635 597.324 102.724 597.75 103.506C598.176 104.263 598.768 104.796 599.526 105.104C600.307 105.411 601.207 105.565 602.225 105.565C602.935 105.565 603.645 105.506 604.355 105.388C605.066 105.246 605.61 105.139 605.989 105.068L608.368 116.325C607.611 116.562 606.545 116.834 605.172 117.142C603.799 117.473 602.13 117.675 600.165 117.746C596.519 117.888 593.323 117.402 590.577 116.29C587.855 115.177 585.736 113.449 584.221 111.105C582.705 108.761 581.96 105.802 581.983 102.227V49.3864ZM617.228 117V62.4545H632.356V117H617.228ZM624.828 55.4233C622.579 55.4233 620.649 54.6776 619.039 53.1861C617.453 51.6709 616.66 49.8598 616.66 47.7528C616.66 45.6695 617.453 43.8821 619.039 42.3906C620.649 40.8755 622.579 40.1179 624.828 40.1179C627.077 40.1179 628.994 40.8755 630.581 42.3906C632.19 43.8821 632.995 45.6695 632.995 47.7528C632.995 49.8598 632.19 51.6709 630.581 53.1861C628.994 54.6776 627.077 55.4233 624.828 55.4233ZM669.119 118.065C663.603 118.065 658.833 116.893 654.808 114.55C650.807 112.182 647.718 108.892 645.54 104.678C643.362 100.44 642.273 95.5275 642.273 89.9403C642.273 84.3059 643.362 79.3816 645.54 75.1676C647.718 70.9299 650.807 67.6392 654.808 65.2955C658.833 62.928 663.603 61.7443 669.119 61.7443C674.635 61.7443 679.394 62.928 683.395 65.2955C687.42 67.6392 690.521 70.9299 692.699 75.1676C694.877 79.3816 695.966 84.3059 695.966 89.9403C695.966 95.5275 694.877 100.44 692.699 104.678C690.521 108.892 687.42 112.182 683.395 114.55C679.394 116.893 674.635 118.065 669.119 118.065ZM669.19 106.347C671.7 106.347 673.795 105.636 675.476 104.216C677.157 102.772 678.423 100.807 679.276 98.321C680.152 95.8352 680.589 93.0062 680.589 89.8338C680.589 86.6615 680.152 83.8324 679.276 81.3466C678.423 78.8608 677.157 76.8958 675.476 75.4517C673.795 74.0076 671.7 73.2855 669.19 73.2855C666.657 73.2855 664.527 74.0076 662.798 75.4517C661.094 76.8958 659.804 78.8608 658.928 81.3466C658.075 83.8324 657.649 86.6615 657.649 89.8338C657.649 93.0062 658.075 95.8352 658.928 98.321C659.804 100.807 661.094 102.772 662.798 104.216C664.527 105.636 666.657 106.347 669.19 106.347ZM720.93 85.4659V117H705.803V62.4545H720.22V72.0781H720.859C722.067 68.9058 724.091 66.3963 726.932 64.5497C729.773 62.6795 733.217 61.7443 737.266 61.7443C741.054 61.7443 744.356 62.5729 747.173 64.2301C749.991 65.8873 752.18 68.2547 753.743 71.3324C755.305 74.3864 756.087 78.0322 756.087 82.2699V117H740.959V84.9688C740.982 81.6307 740.13 79.0265 738.402 77.1562C736.674 75.2623 734.295 74.3153 731.264 74.3153C729.228 74.3153 727.429 74.7533 725.866 75.6293C724.328 76.5052 723.12 77.7836 722.244 79.4645C721.392 81.1217 720.954 83.1222 720.93 85.4659Z" fill="#C5C5C5"/>
<g filter="url(#filter0_d_5511_1311)">
<path d="M125.5 0H44.5C22.1325 0 4 18.1325 4 40.5001V121.5C4 143.868 22.1325 162 44.5 162H125.5C147.868 162 166 143.868 166 121.5V40.5001C166 18.1325 147.868 0 125.5 0Z" fill="#E8E9EB"/>
</g>
<g filter="url(#filter1_d_5511_1311)">
<path d="M125.5 0H44.5C22.1325 0 4 18.1325 4 40.5001V121.5C4 143.868 22.1325 162 44.5 162H125.5C147.868 162 166 143.868 166 121.5V40.5001C166 18.1325 147.868 0 125.5 0Z" fill="#E8E9EB"/>
</g>
<path d="M136.267 37.6516H36.4247V25.1582H136.267V37.6516ZM109.372 87.6253H98.826V98.1822C94.8947 104.117 92.5858 111.175 92.5858 118.859C92.5858 120.983 92.8355 123.044 93.1475 125.106H36.4247V87.6253H30.1846V75.1319L36.4247 43.8983H136.267L142.507 75.1319V83.5649C138.576 82.1907 134.395 81.3786 130.027 81.3786C122.351 81.3786 115.3 83.6899 109.372 87.6253ZM86.3457 87.6253H48.905V112.612H86.3457V87.6253ZM144.629 99.1192L122.226 121.545L112.305 111.613L105.066 118.859L122.226 137.599L151.867 107.927L144.629 99.1192Z" fill="#20283D"/>
<g clip-path="url(#clip0_5511_1311)">
<path d="M144.333 98.2576L139.948 102.832L122.285 120.495L117.139 115.54L112.564 110.965L103.605 119.924L108.18 124.498L117.711 134.029L122.095 138.603L126.669 134.029L148.907 111.791L153.482 107.216L144.333 98.2576Z" fill="#2ACB82"/>
</g>
<defs>
<filter id="filter0_d_5511_1311" x="0" y="0" width="170" height="170" filterUnits="userSpaceOnUse" color-interpolation-filters="sRGB">
<feFlood flood-opacity="0" result="BackgroundImageFix"/>
<feColorMatrix in="SourceAlpha" type="matrix" values="0 0 0 0 0 0 0 0 0 0 0 0 0 0 0 0 0 0 127 0" result="hardAlpha"/>
<feOffset dy="4"/>
<feGaussianBlur stdDeviation="2"/>
<feComposite in2="hardAlpha" operator="out"/>
<feColorMatrix type="matrix" values="0 0 0 0 0 0 0 0 0 0 0 0 0 0 0 0 0 0 0.25 0"/>
<feBlend mode="normal" in2="BackgroundImageFix" result="effect1_dropShadow_5511_1311"/>
<feBlend mode="normal" in="SourceGraphic" in2="effect1_dropShadow_5511_1311" result="shape"/>
</filter>
<filter id="filter1_d_5511_1311" x="0" y="0" width="170" height="170" filterUnits="userSpaceOnUse" color-interpolation-filters="sRGB">
<feFlood flood-opacity="0" result="BackgroundImageFix"/>
<feColorMatrix in="SourceAlpha" type="matrix" values="0 0 0 0 0 0 0 0 0 0 0 0 0 0 0 0 0 0 127 0" result="hardAlpha"/>
<feOffset dy="4"/>
<feGaussianBlur stdDeviation="2"/>
<feComposite in2="hardAlpha" operator="out"/>
<feColorMatrix type="matrix" values="0 0 0 0 0 0 0 0 0 0 0 0 0 0 0 0 0 0 0.25 0"/>
<feBlend mode="normal" in2="BackgroundImageFix" result="effect1_dropShadow_5511_1311"/>
<feBlend mode="normal" in="SourceGraphic" in2="effect1_dropShadow_5511_1311" result="shape"/>
</filter>
<clipPath id="clip0_5511_1311">
<rect width="50.8294" height="50.8294" fill="white" transform="translate(103.605 91.9038)"/>
</clipPath>
</defs>
</svg>
